<svg xmlns="http://www.w3.org/2000/svg" viewBox="0 0 1211.92 1613.33"><defs><style>.cls-1{fill:#b19777;}</style></defs><title>Ресурс 3</title><g id="Слой_2" data-name="Слой 2"><g id="Слой_1-2" data-name="Слой 1"><polygon class="cls-1" points="1173.5 123.98 38.42 123.98 0 0 1211.92 0 1173.5 123.98"/><path class="cls-1" d="M704.82,194.61V334.54h97.84v1187L1002,1428.61V1291.14q0-451.74,0-903.48c0-12.3-4.12-17.81-15.23-21.81-24.37-8.78-48.27-18.87-72.37-28.43l.84-3.94H1002v-30c2.84-35,43.16-62.8,78.37-62.8h13.08a46,46,0,0,0,46-46Z"/><path class="cls-1" d="M441,336.86h0a30.71,30.71,0,0,1,30.72,30.59l.82,197.7c-.27,15.48-6.44,31.21-11.76,46.16C455.57,626,448,639.74,440.15,656.65c6.45-1.75,8.64-2.15,10.69-2.93,70.32-26.71,140.57-53.6,211-80.05,9.31-3.5,11.28-9.41,11.25-18.1-.2-73.68.07-147.35,0-221h0V194.61H72.41a46,46,0,0,0,46,46h13.08c36.51,0,78.17,29.87,78.17,66.73v9.12h0c-.67,184.08,0,368.16,0,552.24v559.64l199.28,93V879.23c0-44.16,0-44.2,41.84-60.6,17.95-7,36-13.86,56.37-21.71v770.31l97,45.29,1.74.81,1.74-.81,97.12-45.24v-960c-99.13,35.37-198,70.12-295.85,105V367.58C409,350.61,424,336.86,441,336.86Z"/></g></g></svg>